<svg width="18" height="29" viewBox="0 0 18 29" fill="none" xmlns="http://www.w3.org/2000/svg">
<path d="M1.53589 10.671C0.0693834 12.8606 -0.431055 15.6326 0.403009 18.3262C1.79989 22.8314 6.28063 24.3 8.23161 24.7339C6.52577 18.623 2.85298 16.2724 2.85298 16.2724C7.62093 18.7546 9.15561 24.8992 9.15561 24.8992C11.2415 16.5566 2.80221 14.7618 1.53444 10.671H1.53589Z" fill="white"/>
<path d="M16.7645 9.48535C17.7131 11.0993 18.0574 13.1562 17.5565 15.1704C16.7192 18.5396 13.9018 19.6813 12.6737 20.0241C13.6909 15.4572 15.988 13.6682 15.988 13.6682C12.9998 15.5676 12.0913 20.1565 12.0913 20.1565C10.691 13.9698 16.0048 12.5427 16.7645 9.48535Z" fill="white"/>
<path d="M5.3793 6.4835C10.1952 9.76008 11.2273 16.8811 11.2273 16.8811C14.2467 7.6148 5.47186 4.76265 4.52383 -0.00012207C2.7568 2.34215 1.95742 5.44056 2.58149 8.57663C3.1663 11.5157 4.87022 13.4669 6.61061 14.7343C8.68758 16.2466 10.0563 18.6034 10.2541 21.2194C10.5935 25.7084 7.9401 28.4563 7.9401 28.4563C13.7348 24.173 10.2625 16.6044 10.2625 16.6044C9.04519 9.50514 5.3779 6.4835 5.3779 6.4835H5.3793Z" fill="white"/>
</svg>
